# xmcd
#
# Track frame offsets:
#	150
#	12702
#	29242
#	44519
#	59702
#	76104
#	95793
#	114004
#	130786
#	147638
#	160367
#	176046
#	195122
#	213607
#	231962
#	248933
#	262592
#	264262
#	266308
#	268125
#	269711
#	271567
#	273266
#	275001
#	276943
#	278809
#
# Disc length: 3738 seconds
#
# Revision: 1
# Processed by: cddbd v1.5.2PL0 Copyright (c) Steve Scherf et al.
# Submitted via: audiograbber 1.83.01
#
DISCID=930e981a
DTITLE=Various Artist - CDX Volume 562 (September 21, 2013)
DYEAR=2013
DGENRE=Country
TTITLE0=Easton Corbin - All Over The Road
TTITLE1=Kip Moore - Hey Pretty Girl
TTITLE2=Joel Crouse - If You Want Some
TTITLE3=Eric Church - Like Jesus Does
TTITLE4=Blake Shelton - Sure Be Cool If You Did
TTITLE5=Tim McGraw (with Colt Ford) - Twisted
TTITLE6=Darius Rucker - Wagon Wheel 
TTITLE7=Billy Ray Cyrus - Hillbilly Heart [Radio Edit]
TTITLE8=Billy Ray Cyrus - Hillbilly Heart [Album Version]
TTITLE9=Shawn Campbell - Can't Be Wrong
TTITLE10=Tobi Gordon - I Want To Live Like That
TTITLE11=Shane Yellowbird - Pickup Truck
TTITLE12=John Karl - That's What I Believe 
TTITLE13=Chris Cox - The Secret Of Life 
TTITLE14=Clinton Gregory - Too Much Ain't Enough
TTITLE15=Wesley Dennis - You
TTITLE16=Clare Bowen - T.J. Martell Foundation Liner 12
TTITLE17=Edens Edge - T.J. Martell Foundation Liner 13
TTITLE18=James Wesley - T.J. Martell Foundation Liner 14
TTITLE19=Kacey Musgraves - T.J. Martell Foundation Liner 15
TTITLE20=Kip Moore - T.J. Martell Foundation Liner 16
TTITLE21=Lee Brice - T.J. Martell Foundation Liner 17
TTITLE22=Phil Vassar - T.J. Martell Foundation Liner 18
TTITLE23=Reba McEntire - T.J. Martell Foundation Liner 19
TTITLE24=Band Perry, The - T.J. Martell Foundation Liner 20
TTITLE25=Thompson Square - T.J. Martell Foundation Liner 21
EXTD=
EXTT0=
EXTT1=
EXTT2=
EXTT3=
EXTT4=
EXTT5=
EXTT6=
EXTT7=
EXTT8=
EXTT9=
EXTT10=
EXTT11=
EXTT12=
EXTT13=
EXTT14=
EXTT15=
EXTT16=
EXTT17=
EXTT18=
EXTT19=
EXTT20=
EXTT21=
EXTT22=
EXTT23=
EXTT24=
EXTT25=
PLAYORDER=
